<svg version="1.1" id="Layer_1" xmlns="http://www.w3.org/2000/svg" xmlns:xlink="http://www.w3.org/1999/xlink" x="0px" y="0px"
	 width="100%" viewBox="0 0 496 496" enable-background="new 0 0 496 496" xml:space="preserve">
<path fill="#000000" opacity="1.000000" stroke="none" 
	d="
M312.814880,162.799744 
	C299.464233,169.242340 290.885437,179.840088 285.676270,192.792801 
	C271.828491,227.225708 271.261475,262.223450 283.887146,297.093140 
	C289.920166,313.755127 300.464111,327.127930 317.296265,334.392883 
	C342.684998,345.350891 372.019104,336.777588 387.605591,313.855560 
	C398.218353,298.248016 402.247681,280.539001 403.734955,262.050446 
	C404.006897,258.669647 402.903076,257.335175 399.311340,257.261597 
	C380.665894,256.879669 362.809662,259.911499 346.366699,269.118591 
	C343.051636,270.974823 341.090607,270.593109 339.015015,267.373138 
	C335.797546,262.381744 332.161072,257.660400 328.741730,252.879776 
	C330.451019,250.943634 332.222961,251.632233 333.779602,251.620270 
	C358.929474,251.427063 384.079620,251.246994 409.230011,251.156540 
	C415.390289,251.134384 421.551544,251.452530 427.712799,251.593384 
	C429.808807,251.641296 431.938416,251.687637 431.839111,254.599289 
	C431.737274,257.584656 429.414856,257.273407 427.442932,257.300598 
	C423.943695,257.348816 420.441864,257.392181 416.944092,257.311005 
	C414.187592,257.247009 413.008179,258.487030 413.047119,261.209320 
	C413.359253,283.020721 412.295441,304.852448 414.092255,326.642670 
	C414.636780,333.246124 415.003357,339.864227 415.462830,346.644226 
	C410.888733,348.000336 406.619537,347.127045 401.431946,347.285828 
	C403.003265,329.143158 404.422882,311.369965 403.813477,292.903412 
	C399.282990,306.842743 393.756836,319.522766 384.052979,330.055511 
	C370.852600,344.383484 354.036285,350.998322 335.185913,352.001373 
	C302.845612,353.722321 274.591858,344.314728 253.450455,318.482178 
	C241.554764,303.946930 235.108078,286.981567 232.618103,268.420654 
	C230.081070,249.509048 230.810547,230.909393 237.815842,212.933350 
	C250.003647,181.658630 273.381042,163.324631 305.481293,155.838333 
	C329.359283,150.269592 352.836670,151.730286 374.966553,163.261887 
	C392.066406,172.172394 404.322693,186.004242 413.528687,202.724670 
	C414.012970,203.604233 414.496033,204.480545 414.202881,205.588226 
	C413.146606,207.072968 411.402130,207.173340 409.823151,207.619339 
	C400.855133,210.152451 391.896820,212.720535 382.914185,215.200729 
	C377.111084,216.803040 376.840149,216.557556 375.666626,210.763992 
	C373.643066,200.773636 370.724426,191.099640 365.888397,182.044327 
	C354.641693,160.985092 335.297974,153.822647 312.814880,162.799744 
z"/>
<path fill="#000000" opacity="1.000000" stroke="none" 
	d="
M93.293320,220.569794 
	C86.979401,210.196945 84.647675,199.364059 86.754745,187.723236 
	C89.479599,172.669357 98.760513,162.743484 112.725906,157.979248 
	C143.370239,147.524994 171.488647,152.339249 195.978226,174.180145 
	C203.822784,181.176270 210.557404,189.206650 216.099930,198.734833 
	C211.703979,202.032181 206.637833,203.264801 201.993393,205.277496 
	C197.596252,207.183014 192.716614,211.231674 188.671539,209.825150 
	C184.612549,208.413803 185.242264,201.758240 183.530380,197.509369 
	C180.157516,189.137878 176.656631,180.893112 170.760696,173.891251 
	C159.637543,160.681732 141.972656,155.576523 125.513634,160.886902 
	C108.804504,166.277939 103.939819,183.406113 115.541496,196.591187 
	C122.998161,205.065521 132.605057,210.930878 141.842377,217.181732 
	C156.744492,227.265915 171.942764,236.919388 186.312805,247.773407 
	C195.378281,254.620743 204.087448,261.877228 210.732101,271.233704 
	C223.795807,289.628967 223.825272,315.626617 210.729828,332.488251 
	C202.402161,343.210907 190.813889,348.677551 177.857895,350.761383 
	C152.395691,354.856720 128.346786,351.063904 107.244499,335.215912 
	C93.335609,324.770172 83.992493,310.611084 76.414925,295.187134 
	C75.735352,293.803925 74.895943,292.154816 76.591248,291.179688 
	C85.330742,286.152802 94.158501,281.279327 103.474045,276.061890 
	C106.459572,285.966003 108.340813,295.093109 112.170486,303.615845 
	C118.934265,318.668213 127.728500,332.008759 142.571686,340.250031 
	C155.089188,347.200043 168.372559,348.337341 181.557480,342.897278 
	C196.682480,336.656860 202.140976,318.178619 193.607117,304.194794 
	C188.645264,296.064148 181.345230,290.192993 173.949890,284.483582 
	C153.895737,269.001160 132.249466,255.725662 112.290298,240.109634 
	C105.174095,234.541916 98.630730,228.392715 93.293320,220.569794 
z"/>
</svg>